<?xml version="1.0" encoding="utf-8"?>
<!-- Generator: Adobe Illustrator 19.0.0, SVG Export Plug-In . SVG Version: 6.00 Build 0)  -->
<svg version="1.1" id="Layer_1" xmlns="http://www.w3.org/2000/svg" xmlns:xlink="http://www.w3.org/1999/xlink" x="0px" y="0px"
	 viewBox="0 0 1560 100" style="enable-background:new 0 0 1560 100;" xml:space="preserve">
<style type="text/css">
	.st0{fill:#FFFFFF;}
</style>
<path id="XMLID_2_" class="st0" d="M1560,100V45.7c-5.3-2.6-11.2-4.1-17.5-4.1c-4.4,0-8.6,0.7-12.5,2c-9.1-13.3-24.4-22-41.7-22
	c-18.5,0-34.6,9.9-43.4,24.7c-4.1-1.5-8.6-2.3-13.2-2.3c-6.9,0-13.4,1.8-19.1,4.9c-7.3-8-17.8-13.1-29.5-13.1
	c-13.9,0-26.2,7.2-33.3,18.1c-5-2.2-10.4-3.5-16.2-3.5c-7.3,0-14.1,2-20,5.4c-7.3-8.7-18.2-14.3-30.5-14.3c0,0-0.1,0-0.1,0
	c-10.5-14.6-27.7-24.2-47.1-24.2c-24.6,0-45.7,15.3-54.1,37c-8.9-6.5-19.9-10.3-31.8-10.3c-14.8,0-28.1,5.9-37.9,15.4
	c-2.6-0.6-5.4-0.8-8.2-0.8c-14,0-26.2,7.2-33.3,18.1c-3.7-0.8-7.6-1.3-11.6-1.3c-5.7,0-11.3,0.9-16.5,2.6c-4.5-14.3-17-25-32.1-27.2
	c-10-12.1-25-19.8-41.9-19.8c-25.4,0-46.8,17.5-52.7,41.1c-7.2-3.6-15.3-5.6-23.9-5.6c-11.2,0-21.7,3.4-30.3,9.2
	c-8.5-18.8-27.4-31.8-49.4-31.8c-4.3,0-8.4,0.5-12.4,1.4c-5.2-15.8-20.1-27.2-37.7-27.2c-21.5,0-38.9,17-39.6,38.3
	c-6.1-3.9-13.4-6.2-21.2-6.2c-9.2,0-17.7,3.2-24.5,8.5c-7.2-7.3-17.2-11.8-28.2-11.8c-2.8,0-5.5,0.3-8.1,0.8
	c-10.6-11.6-25.8-19-42.8-19c-18.5,0-35,8.7-45.6,22.3c-2.6-0.5-5.3-0.8-8.1-0.8c-11.9,0-22.5,5.2-29.8,13.4
	c-5.4-3.3-11.6-5.4-18.2-5.8c-5.7-15-20.1-25.6-37.1-25.6c-0.9,0-1.8,0-2.7,0.1C447,13.3,427.1,0,404.2,0
	c-22.9,0-42.7,13.3-52.1,32.5c-0.4,0-0.7,0-1.1,0c-13.1,0-24.8,6.4-32,16.2c-5.5-2.9-11.9-4.6-18.6-4.6c-9.8,0-18.7,3.6-25.7,9.4
	c-7.2-7.4-17.2-11.9-28.4-11.9c-4.4,0-8.6,0.7-12.5,2c-9.1-13.3-24.4-22-41.7-22c-18.5,0-34.6,9.9-43.4,24.7
	c-4.1-1.5-8.6-2.3-13.2-2.3c-6.9,0-13.4,1.8-19.1,4.9c-7.3-8-17.8-13.1-29.5-13.1c-13.9,0-26.2,7.2-33.3,18.1
	c-5-2.2-10.4-3.5-16.2-3.5c-7.3,0-14.1,2-20,5.4C13,50.4,6.9,46.1,0,43.8V100H1560z"/>
</svg>
